<?xml version="1.0" standalone="no"?>
<!DOCTYPE svg PUBLIC "-//W3C//DTD SVG 20010904//EN"
 "http://www.w3.org/TR/2001/REC-SVG-20010904/DTD/svg10.dtd">
<svg version="1.0" xmlns="http://www.w3.org/2000/svg"
 width="802.000000pt" height="835.000000pt" viewBox="0 0 802.000000 835.000000"
 preserveAspectRatio="xMidYMid meet">

<g transform="translate(0.000000,835.000000) scale(0.100000,-0.100000)"
fill="#000000" stroke="none">
<path d="M5678 5514 c-308 -66 -486 -330 -465 -689 20 -341 182 -565 449 -619
153 -32 272 -18 403 44 108 52 172 119 230 243 66 143 69 130 -27 156 -46 12
-86 21 -89 21 -4 0 -9 -15 -12 -33 -16 -103 -112 -219 -211 -256 -160 -59
-334 -26 -443 86 -55 58 -77 99 -104 204 -18 70 -21 102 -17 218 6 161 27 238
87 323 75 104 174 150 331 152 96 1 110 -1 162 -27 69 -34 138 -108 168 -180
l22 -53 79 20 c52 14 79 26 79 35 0 32 -73 163 -120 214 -118 129 -321 184
-522 141z"/>
<path d="M1612 4863 l3 -648 398 -3 397 -2 0 80 0 80 -312 2 -313 3 -3 568 -2
567 -85 0 -85 0 2 -647z"/>
<path d="M2543 5053 c5 -502 8 -529 66 -648 65 -132 232 -215 431 -215 224 1
387 84 456 233 49 109 54 163 54 643 l0 445 -82 -3 -83 -3 -1 -430 c-1 -446
-6 -510 -44 -585 -53 -102 -172 -150 -342 -137 -91 7 -147 30 -200 81 -81 79
-88 129 -88 654 l0 422 -86 0 -86 0 5 -457z"/>
<path d="M3740 4860 l0 -650 85 0 85 0 0 259 0 259 248 4 c281 5 336 16 426
85 168 130 181 442 24 588 -96 91 -170 104 -570 105 l-298 0 0 -650z m697 461
c124 -71 149 -257 49 -357 -22 -23 -59 -47 -81 -54 -25 -8 -125 -15 -267 -17
l-228 -5 0 224 c0 124 3 228 6 231 4 4 113 5 243 4 230 -2 237 -3 278 -26z"/>
<path d="M4868 4860 l2 -650 85 0 85 0 0 650 0 650 -87 0 -88 0 3 -650z"/>
<path d="M3010 3885 c-18 -21 -5 -220 16 -253 33 -50 120 -57 164 -14 32 33
43 92 38 207 -2 54 -6 70 -18 70 -12 0 -16 -21 -18 -117 l-3 -118 -29 -15
c-38 -20 -73 -19 -99 3 -18 15 -21 29 -22 123 -1 116 -8 140 -29 114z"/>
<path d="M3496 3885 c-8 -21 1 -35 20 -35 10 0 14 8 12 22 -4 27 -23 34 -32
13z"/>
<path d="M4260 3876 c0 -17 5 -26 16 -26 10 0 14 7 12 22 -5 32 -28 35 -28 4z"/>
<path d="M4713 3885 c-2 -6 -2 -74 -1 -150 3 -124 5 -140 21 -143 15 -3 17 5
17 56 l0 60 64 4 c73 4 100 22 110 69 8 41 -17 97 -46 103 -47 11 -161 11
-165 1z m166 -49 c7 -8 11 -27 9 -42 -3 -32 -25 -41 -95 -43 l-43 -1 0 50 0
50 59 0 c39 0 63 -5 70 -14z"/>
<path d="M5306 3893 c-12 -12 -6 -43 9 -43 8 0 15 9 15 19 0 21 -13 34 -24 24z"/>
<path d="M1580 3740 l0 -151 87 3 c74 3 88 6 91 21 3 15 -6 17 -72 17 l-76 0
0 130 c0 109 -2 130 -15 130 -13 0 -15 -23 -15 -150z"/>
<path d="M2340 3833 c0 -53 -1 -55 -17 -41 -28 24 -46 26 -75 11 -63 -31 -74
-130 -21 -185 32 -34 59 -35 90 -6 l23 21 0 -21 c0 -13 6 -22 15 -22 13 0 15
23 15 150 0 127 -2 150 -15 150 -12 0 -15 -13 -15 -57z m-22 -83 c28 -26 28
-67 0 -97 -25 -27 -45 -29 -70 -6 -20 18 -24 73 -8 104 14 25 50 24 78 -1z"/>
<path d="M2410 3870 c0 -11 7 -20 15 -20 8 0 15 9 15 20 0 11 -7 20 -15 20 -8
0 -15 -9 -15 -20z"/>
<path d="M5985 3866 c-9 -13 -14 -28 -13 -34 2 -6 -6 -18 -17 -26 -19 -15 -19
-17 -2 -30 14 -11 17 -29 17 -100 0 -79 2 -86 20 -86 19 0 20 7 20 90 0 83 1
90 20 90 13 0 20 7 20 19 0 10 -9 21 -20 24 -28 7 -25 26 5 37 36 14 33 40 -5
40 -20 0 -34 -8 -45 -24z"/>
<path d="M4335 3848 c-4 -18 -15 -38 -24 -45 -15 -11 -15 -13 1 -25 13 -10 18
-31 20 -87 2 -77 14 -101 48 -101 29 0 36 22 12 38 -19 12 -22 24 -22 77 0 56
2 63 22 68 12 4 23 5 23 4 1 -1 17 -40 35 -86 37 -93 35 -133 -8 -139 -15 -2
-22 -9 -20 -20 5 -24 41 -26 61 -4 22 24 108 275 98 285 -12 12 -25 -10 -50
-83 -28 -79 -36 -89 -45 -55 -4 14 -16 50 -27 80 -19 52 -22 55 -54 55 -31 0
-34 3 -37 32 -4 43 -25 47 -33 6z"/>
<path d="M5786 3864 c-3 -9 -6 -24 -6 -34 0 -10 -7 -20 -15 -24 -8 -3 -15 -12
-15 -21 0 -8 7 -15 15 -15 12 0 15 -16 15 -84 0 -78 1 -84 23 -90 37 -10 47
-7 47 14 0 11 -6 20 -14 20 -19 0 -26 22 -26 85 0 44 3 53 20 58 11 3 20 12
20 20 0 8 -9 17 -20 20 -15 4 -20 14 -20 36 0 33 -14 42 -24 15z"/>
<path d="M1833 3805 c-70 -30 -83 -134 -23 -187 18 -17 42 -28 59 -28 32 0 81
34 81 56 0 13 -4 12 -30 -1 -16 -8 -38 -15 -48 -15 -21 0 -72 36 -72 51 0 5
34 9 75 9 57 0 77 4 81 15 10 26 -12 69 -46 93 -38 26 -36 25 -77 7z m71 -41
c9 -3 16 -12 16 -20 0 -15 -32 -17 -85 -5 -28 6 -29 7 -10 19 22 13 55 15 79
6z"/>
<path d="M2038 3804 c-34 -14 -55 -40 -43 -52 3 -3 16 0 30 6 35 16 80 15 94
-2 15 -17 10 -20 -57 -36 -79 -18 -99 -60 -54 -112 17 -20 63 -23 94 -7 14 8
23 8 31 0 27 -27 33 -10 29 82 -4 99 -15 121 -62 131 -14 3 -42 -2 -62 -10z
m86 -123 c10 -16 -40 -52 -68 -48 -44 5 -51 30 -13 44 39 14 74 16 81 4z"/>
<path d="M2410 3705 c0 -96 3 -115 15 -115 12 0 15 19 15 109 0 88 -3 110 -15
115 -13 5 -15 -11 -15 -109z"/>
<path d="M2575 3812 c-11 -2 -26 -11 -32 -19 -11 -15 -13 -14 -19 0 -3 10 -12
17 -20 17 -11 0 -14 -23 -14 -111 0 -98 2 -110 17 -107 14 2 16 14 14 71 -3
76 13 107 54 107 35 0 44 -20 47 -100 3 -64 6 -75 22 -78 18 -4 19 2 13 84 -2
49 -8 96 -12 105 -8 21 -44 36 -70 31z"/>
<path d="M2743 3809 c-13 -5 -32 -23 -43 -41 -55 -90 13 -204 102 -170 33 12
36 0 8 -28 -24 -24 -39 -25 -85 -6 -23 10 -37 11 -41 4 -12 -18 32 -50 77 -55
38 -4 47 -1 69 22 23 25 25 34 28 151 3 104 1 124 -11 124 -8 0 -18 -7 -21
-17 -6 -14 -8 -14 -19 -1 -17 21 -38 27 -64 17z m67 -59 c39 -39 12 -120 -39
-120 -24 0 -61 45 -61 74 0 28 35 66 60 66 11 0 29 -9 40 -20z"/>
<path d="M3555 3809 c-3 -8 9 -50 26 -94 17 -44 33 -90 36 -102 3 -13 13 -23
23 -23 13 0 26 23 49 88 44 118 47 132 28 132 -10 0 -24 -28 -43 -80 -15 -44
-31 -77 -35 -73 -3 5 -16 38 -28 75 -23 70 -46 102 -56 77z"/>
<path d="M3775 3798 c-40 -31 -56 -75 -45 -124 18 -78 104 -111 155 -59 39 38
31 60 -9 30 -28 -21 -72 -19 -96 5 -11 11 -20 24 -20 30 0 5 35 10 78 12 71 3
77 5 74 23 -6 41 -24 72 -51 88 -38 22 -53 21 -86 -5z m94 -41 c16 -20 3 -27
-49 -27 -26 0 -50 3 -53 7 -14 13 17 33 53 33 21 0 43 -6 49 -13z"/>
<path d="M3948 3812 c-2 -4 -2 -55 0 -114 3 -86 6 -108 18 -108 11 0 14 16 14
73 0 81 4 92 43 106 15 6 27 17 27 26 0 21 -46 19 -59 -2 -9 -16 -10 -16 -11
-2 0 17 -27 34 -32 21z"/>
<path d="M4134 3812 c-25 -4 -49 -28 -58 -59 -9 -29 23 -58 80 -72 26 -7 44
-17 44 -25 0 -23 -54 -29 -89 -12 -31 16 -45 9 -35 -17 7 -19 48 -37 84 -37
31 0 65 29 76 64 8 26 -32 61 -87 76 -23 7 -39 16 -36 23 5 16 57 21 70 8 15
-15 37 -14 37 2 0 29 -48 56 -86 49z"/>
<path d="M4978 3795 c-3 -14 -6 -66 -7 -115 -2 -85 -1 -90 18 -90 19 0 21 6
21 81 l0 80 35 15 c41 17 47 44 11 44 -14 0 -28 -4 -31 -10 -9 -15 -25 -12
-25 5 0 25 -17 17 -22 -10z"/>
<path d="M5153 3812 c-12 -2 -34 -17 -48 -33 -38 -45 -36 -120 4 -160 50 -49
110 -37 142 28 42 88 -11 179 -98 165z m62 -62 c37 -40 8 -120 -43 -120 -25 0
-62 41 -62 70 0 62 66 93 105 50z"/>
<path d="M5300 3708 c0 -131 -5 -155 -32 -164 -10 -3 -17 -11 -15 -17 6 -19
43 -20 61 -2 14 14 16 37 14 153 -2 97 -7 137 -15 140 -10 3 -13 -23 -13 -110z"/>
<path d="M5612 3792 c-41 -38 -50 -90 -26 -143 18 -42 39 -59 72 -59 25 0 58
29 67 58 8 28 -15 30 -40 2 -10 -11 -23 -20 -30 -20 -22 0 -45 36 -45 69 0 66
38 92 75 51 19 -21 45 -27 45 -9 0 22 -22 49 -50 64 -37 19 -33 20 -68 -13z"/>
<path d="M6111 3806 c-70 -20 -86 -142 -26 -193 36 -31 78 -29 116 5 28 25 31
34 31 81 0 44 -4 57 -27 81 -33 34 -50 39 -94 26z m73 -55 c38 -42 11 -121
-41 -121 -53 0 -81 70 -47 118 19 28 64 29 88 3z"/>
<path d="M3285 3703 c0 -94 2 -108 18 -111 15 -3 17 5 17 71 0 80 15 107 58
107 31 0 42 -29 42 -110 0 -62 2 -71 17 -68 15 3 17 14 14 88 -3 101 -17 130
-63 130 -17 0 -40 -7 -50 -17 -17 -15 -18 -15 -18 0 0 10 -8 17 -18 17 -16 0
-18 -11 -17 -107z"/>
<path d="M3497 3803 c-2 -5 -3 -53 -3 -108 1 -87 3 -100 19 -103 15 -3 17 7
17 107 0 90 -3 111 -14 111 -8 0 -17 -3 -19 -7z"/>
<path d="M4250 3700 c0 -103 1 -110 20 -110 19 0 20 7 20 110 0 103 -1 110
-20 110 -19 0 -20 -7 -20 -110z"/>
<path d="M5403 3795 c-28 -20 -47 -77 -39 -120 8 -42 57 -85 96 -85 30 0 90
43 78 55 -3 4 -23 1 -43 -6 -31 -11 -40 -11 -63 2 -15 8 -28 22 -30 32 -3 15
6 17 72 17 73 0 76 1 76 24 0 12 -10 38 -23 57 -18 28 -30 35 -62 37 -24 2
-49 -3 -62 -13z m95 -37 c7 -7 12 -16 12 -20 0 -9 -55 -10 -88 -2 -18 5 -20 9
-11 20 14 17 71 18 87 2z"/>
<path d="M6270 3700 c0 -91 3 -110 15 -110 12 0 15 14 15 64 0 85 12 116 45
116 18 0 25 5 25 20 0 25 -26 26 -52 3 -17 -15 -18 -15 -18 0 0 10 -7 17 -15
17 -12 0 -15 -19 -15 -110z"/>
<path d="M1600 3224 c0 -139 2 -155 17 -152 14 3 16 20 15 146 -1 79 -4 147
-7 152 -19 31 -25 -4 -25 -146z"/>
<path d="M3053 3364 c-8 -21 13 -42 28 -27 13 13 5 43 -11 43 -6 0 -13 -7 -17
-16z"/>
<path d="M3850 3225 c0 -144 1 -156 18 -153 15 3 17 18 17 153 0 135 -2 150
-17 153 -17 3 -18 -9 -18 -153z"/>
<path d="M4152 3367 c-42 -13 -82 -65 -89 -114 -17 -124 85 -214 188 -167 44
19 78 69 60 87 -6 6 -21 -2 -45 -28 -33 -35 -39 -37 -77 -32 -50 7 -78 31 -88
80 -11 48 -3 82 26 112 38 37 92 34 138 -6 39 -35 51 -33 41 5 -12 50 -91 82
-154 63z"/>
<path d="M5813 3364 c-8 -20 13 -42 27 -28 12 12 3 44 -11 44 -5 0 -12 -7 -16
-16z"/>
<path d="M1957 3353 c-4 -3 -7 -15 -7 -25 0 -10 -7 -29 -15 -42 -14 -21 -14
-24 0 -29 10 -5 15 -20 15 -54 0 -88 10 -123 37 -129 37 -10 54 14 26 33 -20
13 -23 24 -23 79 0 49 3 64 14 64 26 0 30 23 8 41 -12 9 -22 29 -22 43 0 24
-18 35 -33 19z"/>
<path d="M2937 3353 c-4 -3 -7 -17 -7 -31 0 -14 -8 -31 -17 -38 -16 -13 -17
-15 -2 -27 11 -8 18 -35 21 -91 5 -79 14 -96 51 -96 27 0 31 26 8 49 -30 30
-31 126 -1 134 34 9 23 44 -12 38 -5 0 -8 15 -8 34 0 33 -16 46 -33 28z"/>
<path d="M5696 3344 c-3 -9 -6 -22 -6 -31 0 -8 -7 -22 -16 -31 -14 -14 -14
-17 -1 -27 10 -7 16 -34 19 -88 4 -82 12 -97 56 -97 27 0 29 21 2 45 -16 14
-20 31 -20 75 0 49 3 58 20 63 11 3 20 12 20 20 0 9 -9 19 -20 22 -14 4 -20
15 -20 36 0 31 -23 41 -34 13z"/>
<path d="M1710 3184 c0 -105 2 -115 18 -112 14 3 18 17 22 83 5 76 6 80 33 89
49 18 62 0 65 -93 2 -71 5 -82 20 -79 15 3 17 14 13 88 -2 47 -8 93 -13 103
-15 29 -56 40 -90 23 -25 -13 -30 -13 -35 0 -3 7 -11 14 -19 14 -11 0 -14 -23
-14 -116z"/>
<path d="M2114 3281 c-63 -39 -71 -132 -14 -183 17 -16 42 -28 56 -28 38 0 84
27 84 50 0 24 -8 25 -34 5 -25 -19 -56 -19 -84 1 -43 30 -28 44 46 44 37 0 72
4 79 8 17 11 4 57 -25 85 -38 36 -71 41 -108 18z m95 -45 c18 -21 -1 -28 -59
-20 -41 5 -48 9 -39 20 15 18 83 18 98 0z"/>
<path d="M2310 3184 c0 -105 2 -115 18 -112 14 3 17 16 20 85 l3 82 34 11 c43
14 47 40 6 40 -16 0 -32 -6 -35 -12 -3 -9 -8 -8 -16 5 -23 36 -30 14 -30 -99z"/>
<path d="M2450 3184 c0 -105 2 -115 18 -112 14 3 17 16 20 78 3 80 14 100 59
100 32 0 43 -28 43 -110 0 -63 2 -71 18 -68 15 3 17 15 15 92 -2 52 -8 95 -15
103 -22 27 -58 35 -88 19 -25 -12 -29 -12 -34 0 -3 8 -12 14 -21 14 -13 0 -15
-18 -15 -116z"/>
<path d="M2730 3283 c-42 -21 -57 -61 -19 -48 52 17 106 17 112 1 6 -15 -15
-25 -85 -40 -57 -13 -76 -68 -38 -106 22 -22 70 -26 102 -9 14 8 23 8 31 0 6
-6 17 -11 25 -11 24 0 12 175 -14 200 -28 29 -73 34 -114 13z m100 -122 c0
-15 -51 -51 -71 -51 -9 0 -25 8 -35 17 -16 16 -15 18 12 30 34 14 94 17 94 4z"/>
<path d="M3057 3293 c-4 -3 -7 -55 -7 -115 0 -101 1 -108 20 -108 19 0 20 7
20 99 0 118 -8 149 -33 124z"/>
<path d="M3172 3280 c-18 -11 -37 -32 -42 -46 -44 -115 65 -213 152 -136 27
25 31 36 31 75 0 56 -15 88 -53 110 -36 22 -48 21 -88 -3z m92 -52 c22 -32 20
-62 -7 -94 -19 -22 -29 -26 -50 -20 -54 13 -71 80 -31 120 23 24 70 20 88 -6z"/>
<path d="M3370 3185 c0 -108 1 -115 20 -115 18 0 20 7 20 80 0 68 3 81 19 90
58 30 81 0 81 -106 0 -58 2 -64 20 -64 20 0 21 5 17 90 -3 67 -9 96 -21 109
-25 28 -64 35 -91 17 -20 -13 -24 -13 -29 -1 -3 8 -12 15 -21 15 -13 0 -15
-18 -15 -115z"/>
<path d="M3648 3283 c-25 -10 -38 -22 -38 -34 0 -16 4 -17 26 -9 40 16 101 12
108 -5 3 -9 0 -18 -7 -20 -6 -2 -38 -11 -69 -20 -47 -13 -59 -20 -64 -41 -15
-60 35 -97 104 -76 24 8 40 8 46 2 26 -26 36 -9 36 58 0 98 -14 138 -52 151
-39 14 -45 13 -90 -6z m92 -128 c0 -23 -44 -47 -73 -40 -37 10 -41 32 -9 44
42 15 82 13 82 -4z"/>
<path d="M4424 3290 c-36 -14 -64 -59 -64 -102 0 -133 156 -164 190 -37 15 54
-2 104 -44 130 -34 21 -50 22 -82 9z m78 -57 c24 -21 23 -64 -3 -97 -26 -33
-53 -33 -84 -1 -30 30 -31 54 -4 89 24 30 63 34 91 9z"/>
<path d="M4640 3273 c-57 -51 -50 -157 11 -188 57 -30 110 -10 135 52 24 56 7
110 -46 146 -35 24 -65 21 -100 -10z m102 -40 c24 -21 23 -64 -3 -97 -24 -30
-48 -33 -77 -8 -32 26 -37 63 -12 95 25 31 64 36 92 10z"/>
<path d="M4857 3293 c-4 -3 -7 -73 -7 -155 0 -141 1 -148 20 -148 17 0 20 7
20 49 l0 49 35 -11 c30 -9 39 -8 63 10 15 11 33 38 41 60 13 35 13 46 0 79 -9
23 -27 46 -47 57 -29 17 -34 18 -63 3 -39 -20 -39 -20 -39 -1 0 16 -12 20 -23
8z m125 -60 c42 -38 6 -133 -45 -117 -35 10 -50 30 -49 64 2 60 54 89 94 53z"/>
<path d="M5134 3281 c-38 -23 -59 -77 -50 -126 8 -40 57 -85 92 -85 33 0 80
25 88 46 10 25 1 27 -33 10 -38 -20 -61 -20 -89 0 -44 31 -28 44 53 44 l75 0
0 30 c0 35 -43 87 -80 95 -16 3 -37 -2 -56 -14z m91 -41 c12 -19 -3 -25 -54
-22 -43 3 -50 6 -40 18 13 16 85 19 94 4z"/>
<path d="M5316 3293 c-3 -3 -6 -55 -6 -115 0 -101 1 -108 20 -108 17 0 19 8
22 83 3 82 3 82 36 96 17 8 32 21 32 28 0 19 -51 16 -66 -4 -12 -17 -13 -17
-14 -1 0 19 -14 31 -24 21z"/>
<path d="M5510 3284 c-57 -25 -63 -66 -6 -44 39 14 82 12 96 -5 10 -12 8 -16
-11 -24 -13 -4 -43 -12 -67 -16 -49 -8 -69 -36 -58 -80 9 -37 47 -52 99 -38
26 7 46 8 52 2 25 -25 35 -8 35 59 0 98 -14 138 -52 151 -39 14 -45 14 -88 -5z
m95 -123 c7 -12 -43 -51 -66 -51 -9 0 -25 8 -35 17 -16 16 -15 18 17 29 42 15
76 17 84 5z"/>
<path d="M5817 3294 c-4 -4 -7 -56 -7 -116 0 -99 2 -109 18 -106 15 3 17 16
17 112 0 102 -7 130 -28 110z"/>
<path d="M5963 3285 c-17 -7 -38 -23 -47 -36 -18 -27 -21 -87 -5 -122 13 -29
58 -57 91 -57 84 0 125 132 59 193 -34 31 -61 37 -98 22z m79 -52 c26 -24 23
-75 -6 -102 -63 -59 -141 42 -80 103 20 21 63 20 86 -1z"/>
<path d="M6157 3293 c-4 -3 -7 -55 -7 -115 0 -99 2 -109 18 -106 14 3 18 16
20 78 3 83 12 100 51 100 43 0 51 -17 51 -103 0 -69 2 -78 18 -75 15 3 17 15
14 93 -2 65 -7 93 -19 107 -18 20 -64 24 -93 8 -13 -7 -19 -6 -24 5 -6 16 -18
19 -29 8z"/>
<path d="M820 2760 l0 -27 128 -7 c157 -8 6262 -7 6303 1 25 5 30 10 27 32
l-3 26 -3227 1 -3228 2 0 -28z"/>
<path d="M1097 2573 c-39 -3 -48 -7 -45 -21 3 -14 18 -17 101 -20 l97 -3 0
-33 0 -33 -115 -5 c-64 -3 -118 -8 -122 -11 -3 -4 0 -13 7 -22 9 -10 31 -15
71 -15 44 0 59 -4 59 -14 0 -9 -17 -16 -50 -21 -31 -4 -50 -12 -50 -20 0 -20
24 -25 116 -25 l84 0 0 -51 c0 -47 2 -50 23 -47 12 2 22 9 21 16 -1 6 -2 39
-2 72 l-2 60 -50 0 c-38 0 -50 4 -50 15 0 11 13 15 54 15 30 0 61 3 70 6 23 9
20 31 -5 37 -19 5 -20 12 -17 64 l3 58 -75 1 c-41 1 -97 -1 -123 -3z"/>
<path d="M1678 2573 c-16 -4 -18 -20 -18 -164 l0 -160 23 3 c22 3 22 6 25 157
1 85 -1 157 -5 161 -5 4 -16 5 -25 3z"/>
<path d="M1898 2573 c-10 -2 -18 -11 -18 -18 0 -8 -10 -15 -22 -17 -15 -2 -24
-11 -26 -25 -3 -22 -1 -23 90 -23 57 -1 105 -6 123 -15 27 -12 28 -13 8 -14
-14 -1 -23 -7 -23 -17 0 -13 -6 -11 -25 10 -19 21 -33 26 -70 26 -62 0 -85
-14 -85 -50 0 -20 6 -31 20 -35 17 -6 20 -15 20 -76 l0 -69 110 0 110 0 0 58
0 58 -90 -4 c-49 -3 -90 -2 -90 1 0 2 25 17 56 32 41 20 59 24 67 16 6 -6 22
-11 34 -11 23 0 24 2 21 88 -2 69 -6 87 -18 87 -9 0 -16 -11 -18 -27 -5 -40
-50 -33 -95 13 -17 18 -42 22 -79 12z m72 -139 c0 -10 -13 -14 -40 -14 -41 0
-52 12 -24 28 22 12 64 3 64 -14z m68 -131 c-21 -2 -57 -2 -80 0 -24 2 -7 4
37 4 44 0 63 -2 43 -4z"/>
<path d="M2235 2570 c-4 -6 -4 -22 -1 -35 6 -22 12 -24 69 -28 l62 -3 -61 -2
c-70 -2 -72 -5 -66 -75 4 -44 6 -48 26 -43 11 3 53 6 92 6 65 0 72 2 79 23 8
21 8 21 12 -5 3 -22 10 -28 29 -28 24 0 24 1 24 94 0 77 -3 95 -16 100 -11 4
-18 -1 -21 -14 -3 -13 -14 -20 -28 -20 -35 0 -40 -28 -7 -42 26 -11 26 -12 5
-15 -15 -3 -23 -12 -23 -24 0 -17 -7 -19 -72 -17 l-73 2 63 3 62 4 0 59 0 60
-37 0 c-21 1 -54 3 -74 6 -22 3 -40 1 -44 -6z"/>
<path d="M2889 2568 c-1 -7 0 -23 1 -35 2 -29 -24 -77 -55 -101 -14 -11 -25
-25 -25 -31 0 -22 39 -10 69 20 l31 31 32 -31 c38 -37 40 -37 63 -11 15 17 16
20 3 20 -9 0 -30 16 -47 35 -24 27 -31 45 -31 75 0 33 -3 40 -20 40 -11 0 -20
-6 -21 -12z"/>
<path d="M3050 2550 c0 -26 -4 -31 -30 -36 -39 -8 -39 -33 0 -40 28 -6 29 -8
32 -73 2 -54 6 -66 21 -69 16 -3 17 6 15 120 -3 108 -5 123 -20 126 -14 3 -18
-3 -18 -28z"/>
<path d="M3786 2573 c-3 -3 -6 -78 -6 -165 0 -157 0 -159 21 -156 19 3 22 11
24 68 2 36 4 73 4 83 1 9 5 17 11 17 5 0 10 -37 12 -82 3 -75 5 -83 23 -83 19
0 20 8 23 154 1 96 -1 158 -8 165 -16 16 -28 -4 -35 -59 -7 -58 -24 -84 -26
-39 -1 16 -2 42 -3 57 -2 28 -27 53 -40 40z"/>
<path d="M4052 2558 c-2 -10 -13 -18 -23 -18 -13 0 -19 -7 -19 -24 0 -24 1
-24 98 -23 90 2 97 3 97 22 0 13 -8 21 -22 23 -13 2 -23 9 -23 17 0 9 -17 14
-52 17 -42 2 -52 0 -56 -14z"/>
<path d="M4237 2573 c-4 -3 -7 -48 -7 -99 0 -75 3 -93 16 -98 23 -9 36 3 29
25 -9 29 4 59 26 59 27 0 24 28 -3 32 -19 2 -24 10 -26 46 -3 39 -17 53 -35
35z"/>
<path d="M4670 2568 c-54 -29 -57 -86 -4 -110 37 -17 29 -26 -26 -25 -27 0
-51 -1 -54 -4 -2 -2 -2 -16 1 -31 5 -25 10 -28 45 -28 23 0 37 -4 33 -10 -3
-5 -15 -10 -26 -10 -23 0 -26 -25 -3 -34 9 -3 53 -6 99 -6 l84 0 3 -37 c2 -30
7 -38 22 -38 16 0 19 9 21 58 3 50 1 57 -15 57 -11 0 -22 5 -25 10 -3 6 5 10
19 10 40 0 56 11 56 36 0 19 -5 24 -27 25 -16 0 -37 4 -48 9 l-20 8 20 8 c48
19 57 59 20 94 -20 19 -39 25 -88 27 -38 3 -72 -1 -87 -9z m150 -47 c0 -33
-14 -41 -70 -41 -42 0 -61 5 -73 18 -10 10 -14 22 -10 25 10 11 153 8 153 -2z
m-47 -158 c-13 -2 -33 -2 -45 0 -13 2 -3 4 22 4 25 0 35 -2 23 -4z"/>
<path d="M5089 2578 c-1 -2 -3 -19 -4 -39 -2 -42 -36 -95 -65 -104 -24 -8 -25
-18 -5 -35 13 -11 22 -8 56 20 l41 32 19 -21 c20 -21 79 -30 79 -12 0 5 -16
22 -37 38 -29 24 -37 39 -42 74 -4 31 -11 45 -23 47 -10 2 -19 2 -19 0z"/>
<path d="M5249 2563 c-1 -10 -1 -22 0 -26 1 -4 -12 -13 -29 -18 -36 -13 -39
-36 -5 -45 26 -6 27 -9 29 -61 l1 -33 -58 0 c-100 0 -155 -39 -127 -90 17 -33
71 -60 116 -60 82 0 142 73 99 120 -14 16 -14 18 0 23 23 9 22 192 -1 201 -22
9 -24 8 -25 -11z m1 -248 c0 -8 -14 -22 -31 -30 -45 -24 -119 -4 -119 31 0 11
18 14 75 14 59 0 75 -3 75 -15z"/>
<path d="M5777 2573 c-4 -3 -7 -78 -7 -165 0 -151 1 -158 20 -158 19 0 20 7
20 165 0 131 -3 165 -13 165 -8 0 -17 -3 -20 -7z"/>
<path d="M5991 2561 c-47 -47 -11 -107 65 -105 112 2 112 109 1 121 -36 4 -49
1 -66 -16z m107 -35 c12 -12 -14 -26 -49 -26 -27 0 -39 4 -39 14 0 8 6 17 13
20 12 5 67 -1 75 -8z"/>
<path d="M6187 2573 c-4 -3 -7 -35 -7 -70 l0 -63 -47 -2 c-27 -1 -78 -2 -115
-3 -36 0 -70 -3 -74 -7 -14 -14 19 -38 52 -38 39 0 42 -8 13 -33 -15 -14 -19
-27 -17 -60 l3 -42 114 -3 c63 -1 118 1 122 5 21 21 -12 34 -104 40 -108 7
-113 12 -71 62 27 33 54 41 54 16 0 -8 17 -19 43 -25 23 -6 50 -13 60 -16 16
-5 17 5 17 120 0 116 -2 126 -18 126 -10 0 -22 -3 -25 -7z m-18 -173 c-22 -14
-34 2 -13 17 13 10 20 10 23 2 2 -6 -3 -15 -10 -19z"/>
<path d="M6562 2418 c3 -160 3 -163 26 -166 21 -3 22 -1 22 78 0 73 2 82 20
87 26 7 26 29 1 36 -16 4 -20 15 -23 63 -3 53 -5 59 -26 62 l-23 3 3 -163z"/>
<path d="M6813 2570 c-29 -12 -55 -54 -55 -87 0 -35 43 -73 85 -73 38 0 87 43
87 78 0 26 -59 92 -81 91 -8 0 -24 -4 -36 -9z m61 -56 c18 -18 19 -24 7 -42
-12 -20 -75 -11 -79 11 -8 40 42 62 72 31z"/>
<path d="M6994 2563 c-9 -30 -19 -46 -28 -43 -9 2 -26 -19 -26 -32 0 -4 10 -8
23 -10 19 -3 22 -10 25 -61 l3 -58 -73 3 c-63 3 -73 5 -72 21 1 12 -4 17 -15
15 -13 -3 -16 -16 -16 -73 l0 -70 108 -3 107 -3 0 166 c0 141 -2 165 -15 165
-9 0 -18 -8 -21 -17z m-36 -260 c-21 -2 -55 -2 -75 0 -21 2 -4 4 37 4 41 0 58
-2 38 -4z"/>
<path d="M1590 2526 c0 -36 -4 -46 -20 -51 -11 -3 -20 -12 -20 -20 0 -8 9 -17
20 -20 18 -6 20 -15 20 -91 0 -68 3 -86 16 -91 8 -3 19 -2 23 3 5 5 6 78 3
162 -4 140 -6 152 -23 152 -16 0 -19 -8 -19 -44z"/>
<path d="M1443 2553 c-33 -6 -31 -43 2 -43 23 0 25 -4 25 -43 0 -31 -9 -57
-30 -90 -35 -56 -37 -67 -10 -67 13 0 27 14 41 41 l21 42 24 -42 c27 -45 35
-49 54 -26 10 12 9 18 -4 31 -33 33 -52 89 -47 140 1 7 12 15 26 18 16 4 25
13 25 26 0 18 -6 20 -52 19 -29 -1 -63 -4 -75 -6z"/>
<path d="M3233 2544 c-2 -6 -3 -42 -1 -80 l3 -69 48 -3 c46 -3 47 -4 47 -36
l0 -33 -66 -6 c-74 -7 -79 -9 -70 -32 5 -13 27 -15 158 -13 145 3 153 4 153
23 0 18 -8 20 -67 23 l-68 3 0 34 0 35 50 0 c42 0 50 3 50 19 0 22 -40 31
-137 31 l-63 0 0 35 c0 26 4 35 18 36 9 1 31 3 47 4 17 2 54 3 83 4 39 1 52 5
52 16 0 12 -16 15 -77 16 -43 0 -95 1 -117 2 -21 1 -40 -3 -43 -9z"/>
<path d="M3672 2552 l-43 -3 3 -117 3 -117 44 -3 c66 -5 91 4 91 32 0 22 -2
23 -37 16 -20 -5 -41 -7 -45 -4 -4 3 -8 38 -8 79 0 76 5 85 52 85 13 0 18 6
16 17 -3 18 -13 20 -76 15z"/>
<path d="M5588 2552 c-62 -4 -66 -29 -8 -38 40 -7 40 -7 34 -43 -7 -39 -44
-110 -68 -131 -21 -17 -20 -27 3 -33 20 -5 49 20 70 61 13 24 31 30 31 9 0
-22 55 -68 73 -61 22 8 21 17 -4 40 -28 24 -58 91 -59 127 0 24 4 27 30 27 26
0 52 22 39 34 -7 6 -93 11 -141 8z"/>
<path d="M6417 2553 c-4 -3 -7 -22 -7 -42 0 -58 -17 -104 -55 -148 -30 -35
-33 -43 -20 -53 12 -10 20 -7 43 16 16 16 33 38 40 49 10 19 13 18 47 -22 35
-42 75 -57 75 -30 0 8 -12 24 -26 38 -38 35 -53 71 -61 139 -5 55 -17 73 -36
53z"/>
<path d="M4040 2462 c-18 -14 -21 -25 -16 -45 13 -53 130 -60 163 -10 14 20
13 24 -11 48 -31 31 -101 35 -136 7z m107 -29 c5 -13 -31 -23 -57 -16 -25 7
-26 30 -2 35 21 5 55 -6 59 -19z"/>
<path d="M5397 2434 c-4 -4 -7 -18 -7 -31 0 -18 5 -23 26 -23 22 0 25 4 22 27
-3 27 -26 41 -41 27z"/>
<path d="M2883 2372 c-5 -4 -13 -28 -17 -53 -10 -65 0 -70 125 -67 96 3 104 5
104 23 0 21 -2 21 -127 24 l-67 1 6 34 c5 34 -4 50 -24 38z"/>
<path d="M2270 2335 c0 -25 0 -25 89 -25 l90 0 3 -37 c2 -31 7 -39 26 -41 22
-3 23 -1 20 60 l-3 63 -112 3 -113 2 0 -25z"/>
<path d="M4043 2347 c-3 -4 1 -14 7 -22 9 -11 35 -15 96 -15 l83 0 3 -37 c2
-30 7 -38 22 -38 17 0 19 8 20 58 l1 57 -40 1 c-151 4 -187 3 -192 -4z"/>
<path d="M810 2050 l0 -30 3228 2 3227 3 3 28 3 27 -3230 0 -3231 0 0 -30z"/>
<path d="M1520 1803 c-57 -12 -148 -63 -197 -110 -161 -157 -165 -424 -9 -572
83 -78 124 -94 237 -94 83 0 102 3 150 27 187 94 244 312 100 386 -66 33 -118
23 -171 -35 -48 -52 -101 -85 -139 -85 -74 0 -141 75 -141 157 1 106 133 205
276 206 47 1 74 -6 125 -30 87 -40 132 -82 169 -155 27 -55 30 -71 30 -152 0
-81 -3 -98 -31 -156 -16 -36 -47 -82 -67 -102 -50 -53 -27 -47 36 8 96 84 136
183 130 324 -4 112 -42 194 -126 272 -88 80 -158 111 -262 114 -47 1 -96 0
-110 -3z"/>
<path d="M4765 1771 c-92 -42 -134 -144 -110 -263 11 -55 25 -46 25 15 0 93
61 157 150 157 70 -1 162 -44 334 -157 l39 -25 -7 32 c-3 18 -19 47 -35 66
-25 28 -28 39 -24 72 5 38 4 41 -38 65 -99 57 -254 75 -334 38z"/>
<path d="M2682 1667 c-27 -29 -29 -78 -4 -100 22 -20 64 -22 95 -6 46 25 49
59 8 100 -35 35 -70 37 -99 6z m76 -29 c7 -7 12 -22 12 -34 0 -25 -34 -38 -62
-23 -32 17 -16 69 22 69 9 0 21 -5 28 -12z"/>
<path d="M2970 1600 l0 -80 123 0 123 0 -4 68 c-2 37 -5 73 -8 80 -6 20 -26 3
-21 -18 4 -15 -6 -18 -76 -23 -44 -4 -84 -4 -88 -1 -5 3 -9 16 -9 30 0 17 -5
24 -20 24 -18 0 -20 -7 -20 -80z m210 -25 c0 -25 -1 -25 -85 -25 -84 0 -85 0
-85 25 0 25 1 25 85 25 84 0 85 0 85 -25z"/>
<path d="M2244 1651 c-14 -14 21 -21 112 -21 l104 0 1 -45 c1 -25 3 -49 4 -55
1 -5 3 -21 4 -35 0 -14 6 -25 11 -25 6 0 10 38 10 95 l0 95 -121 -3 c-66 -1
-122 -4 -125 -6z"/>
<path d="M2662 1533 c-71 -3 -83 -6 -78 -19 3 -9 6 -18 6 -20 0 -2 14 -4 31
-4 24 0 30 -4 27 -17 -2 -10 -12 -18 -22 -18 -11 0 -21 -6 -24 -13 -3 -9 23
-12 107 -12 l111 0 0 -35 c0 -29 4 -35 21 -35 18 0 20 5 17 48 -2 38 -6 46
-20 44 -12 -2 -18 4 -18 17 0 14 8 21 27 23 17 2 29 10 31 21 3 14 -4 17 -45
17 -26 0 -57 2 -68 3 -11 2 -58 2 -103 0z m108 -58 c0 -11 -11 -15 -40 -15
-29 0 -40 4 -40 15 0 11 11 15 40 15 29 0 40 -4 40 -15z"/>
<path d="M2295 1510 c-4 -6 -5 -30 -3 -53 3 -41 2 -42 -29 -45 -21 -2 -33 -9
-33 -18 0 -11 26 -14 145 -14 122 0 145 2 145 15 0 11 -12 15 -45 15 -45 0
-49 4 -48 48 1 6 -3 12 -8 12 -6 0 -5 9 1 20 9 16 8 22 -5 26 -23 9 -29 -2
-30 -54 -1 -39 -4 -47 -22 -50 -16 -2 -22 4 -27 29 -3 17 -6 42 -6 55 0 24
-23 33 -35 14z"/>
<path d="M2950 1455 c0 -12 14 -15 64 -15 l65 0 3 -37 c2 -20 9 -39 17 -41 11
-4 13 4 9 36 l-6 41 66 3 c41 2 67 8 70 16 3 9 -30 12 -142 12 -123 0 -146 -2
-146 -15z"/>
<path d="M4350 1286 c0 -148 1 -154 21 -159 12 -3 32 -2 45 3 21 8 23 16 26
82 l3 72 55 -77 c60 -83 74 -93 114 -78 l26 11 0 150 0 151 -42 -3 -43 -3 -1
-73 c-1 -40 -4 -75 -6 -78 -3 -2 -13 8 -23 23 -10 15 -36 52 -58 81 -36 47
-43 52 -78 52 l-39 0 0 -154z"/>
<path d="M4688 1433 c-2 -5 -3 -74 -3 -155 l0 -146 30 -5 c54 -8 67 7 59 69
-9 72 7 71 69 -7 49 -59 49 -59 103 -59 30 0 54 2 54 5 0 3 -21 29 -47 56 -47
50 -47 51 -26 67 52 42 58 109 14 153 -29 29 -31 29 -140 29 -61 0 -112 -3
-113 -7z m180 -78 c11 -10 11 -17 2 -34 -9 -18 -19 -22 -53 -19 -35 3 -43 7
-45 26 -5 35 14 52 51 45 18 -3 38 -11 45 -18z"/>
<path d="M5017 1433 c-4 -3 -7 -73 -7 -155 l0 -149 43 3 42 3 0 45 0 45 72 5
c39 3 74 8 77 11 3 3 9 20 12 37 l7 32 -81 0 c-84 0 -98 6 -87 40 5 17 17 20
88 22 l82 3 3 33 3 32 -124 0 c-68 0 -127 -3 -130 -7z"/>
<path d="M5660 1373 c0 -40 4 -62 10 -58 6 3 10 19 10 36 0 38 17 38 25 -1 5
-23 12 -30 31 -30 22 0 24 4 24 49 0 28 -4 53 -10 56 -6 4 -10 -8 -10 -29 0
-46 -15 -46 -31 -2 -7 19 -21 37 -31 39 -16 5 -18 -2 -18 -60z"/>
<path d="M5920 1430 c0 -5 5 -10 10 -10 6 0 10 5 10 10 0 6 -4 10 -10 10 -5 0
-10 -4 -10 -10z"/>
<path d="M6242 1378 c2 -35 7 -63 13 -63 5 0 9 9 9 20 -1 11 -2 39 -2 63 -1
23 -7 42 -12 42 -7 0 -10 -24 -8 -62z"/>
<path d="M6880 1381 c0 -33 5 -63 10 -66 6 -4 10 9 10 30 0 46 24 43 28 -4 4
-40 28 -36 25 4 -3 43 -10 55 -33 55 -13 0 -20 7 -20 20 0 11 -4 20 -10 20 -6
0 -10 -26 -10 -59z"/>
<path d="M6322 1373 c2 -34 8 -58 16 -61 7 -2 12 6 12 22 0 14 5 26 10 26 6 0
10 -11 10 -25 0 -16 6 -25 15 -25 12 0 15 13 15 60 l0 60 -40 0 -41 0 3 -57z
m48 27 c0 -11 -4 -20 -10 -20 -5 0 -10 9 -10 20 0 11 5 20 10 20 6 0 10 -9 10
-20z"/>
<path d="M5862 1369 c2 -39 7 -55 18 -57 13 -2 15 6 10 49 -7 74 -32 80 -28 8z"/>
<path d="M5787 1403 c-10 -17 -17 -83 -10 -84 50 -8 58 -4 61 29 2 18 -2 40
-9 48 -12 15 -35 19 -42 7z m28 -33 c9 -27 -6 -50 -16 -24 -4 10 -8 25 -8 32
-1 20 17 14 24 -8z"/>
<path d="M6179 1403 c-16 -4 -34 -67 -23 -84 2 -4 17 -7 32 -6 24 2 27 7 30
43 3 43 -7 54 -39 47z m13 -65 c-9 -9 -12 -4 -11 23 0 32 1 33 11 11 8 -17 8
-26 0 -34z"/>
<path d="M6424 1396 c-3 -8 -4 -29 -2 -48 2 -27 8 -34 30 -36 22 -3 27 2 33
27 3 16 1 39 -5 50 -12 24 -48 28 -56 7z m40 -22 c3 -9 6 -23 6 -32 -1 -15 -3
-14 -15 2 -17 22 -20 46 -6 46 5 0 12 -7 15 -16z"/>
<path d="M6522 1399 c-19 -7 -22 -15 -19 -44 2 -19 7 -35 10 -35 4 0 16 0 28
0 17 0 20 5 16 40 -4 48 -6 50 -35 39z m9 -46 c-8 -15 -10 -15 -11 -2 0 17 10
32 18 25 2 -3 -1 -13 -7 -23z"/>
<path d="M6680 1400 c-18 -11 -18 -82 -1 -88 11 -4 13 3 8 31 -6 41 9 61 18
24 4 -13 5 -28 3 -34 -2 -6 2 -13 7 -14 6 -2 11 15 13 37 2 34 0 42 -16 46
-11 3 -25 2 -32 -2z"/>
<path d="M6836 1403 c-4 -4 -24 -6 -46 -5 l-40 3 0 -41 c0 -29 4 -40 15 -40
10 0 15 10 15 29 0 42 18 48 22 9 3 -29 7 -33 33 -36 27 -2 28 -1 13 11 -22
17 -24 47 -3 47 8 0 15 4 15 9 0 13 -16 22 -24 14z"/>
<path d="M5920 1355 c0 -25 5 -45 10 -45 6 0 10 20 10 45 0 25 -4 45 -10 45
-5 0 -10 -20 -10 -45z"/>
<path d="M5967 1393 c-9 -8 -9 -46 -1 -67 4 -9 18 -16 34 -16 32 0 46 25 36
66 -5 18 -13 24 -35 24 -15 0 -31 -3 -34 -7z m47 -18 c6 -18 -2 -45 -15 -45
-5 0 -9 14 -9 30 0 32 14 40 24 15z"/>
<path d="M6060 1355 c0 -25 5 -45 10 -45 6 0 10 11 10 24 0 60 27 76 32 19 3
-40 28 -60 28 -21 0 53 -11 68 -46 68 -34 0 -34 -1 -34 -45z"/>
<path d="M6580 1361 c0 -31 4 -41 20 -46 30 -9 40 2 40 46 0 37 -2 39 -30 39
-28 0 -30 -2 -30 -39z m40 -1 c0 -11 -4 -20 -10 -20 -5 0 -10 9 -10 20 0 11 5
20 10 20 6 0 10 -9 10 -20z"/>
<path d="M6077 1253 c-4 -3 -7 -35 -7 -70 0 -47 3 -64 13 -61 7 3 13 29 15 71
3 61 -3 78 -21 60z"/>
<path d="M6270 1250 c0 -5 5 -10 10 -10 6 0 10 5 10 10 0 6 -4 10 -10 10 -5 0
-10 -4 -10 -10z"/>
<path d="M6646 1244 c-9 -25 -7 -112 3 -119 15 -8 21 8 23 64 1 28 6 51 11 51
4 0 5 5 2 10 -9 15 -32 12 -39 -6z"/>
<path d="M2501 1188 c-1 -40 3 -68 9 -68 11 0 11 60 0 105 -6 23 -8 15 -9 -37z"/>
<path d="M5667 1243 c-11 -10 -8 -123 2 -123 5 0 11 12 13 28 2 15 9 27 17 27
8 0 16 6 19 13 2 7 -5 12 -17 12 -12 0 -21 6 -21 15 0 8 9 15 20 15 11 0 20 5
20 10 0 11 -43 14 -53 3z"/>
<path d="M6745 1239 c-10 -26 -1 -112 13 -117 14 -4 16 80 2 113 -7 17 -9 18
-15 4z"/>
<path d="M6790 1231 c-19 -37 -2 -111 26 -111 10 0 10 8 -2 37 -12 28 -13 42
-5 60 13 29 14 33 1 33 -5 0 -14 -9 -20 -19z"/>
<path d="M2230 1178 c0 -74 5 -73 14 5 4 36 2 57 -4 57 -6 0 -10 -27 -10 -62z"/>
<path d="M2310 1203 c0 -47 9 -83 21 -83 10 0 12 44 3 89 -9 43 -24 39 -24 -6z"/>
<path d="M2956 1222 c-3 -9 -2 -37 3 -62 l9 -45 1 38 c1 22 6 37 14 37 8 0 8
3 -2 9 -12 8 -12 12 -2 25 11 13 11 16 -2 16 -9 0 -18 -8 -21 -18z"/>
<path d="M3066 1197 c-10 -62 -1 -77 43 -76 35 1 36 1 6 8 -28 6 -30 9 -30 51
0 40 2 45 23 44 12 0 22 3 22 8 0 4 -13 8 -29 8 -26 0 -29 -4 -35 -43z"/>
<path d="M3580 1180 c0 -34 4 -60 10 -60 6 0 10 24 8 60 -1 33 -6 60 -10 60
-4 0 -8 -27 -8 -60z"/>
<path d="M2628 1220 c-6 -19 4 -100 12 -100 5 0 7 23 5 51 -4 51 -10 69 -17
49z"/>
<path d="M3526 1213 c-7 -23 7 -86 19 -90 6 -2 9 19 7 52 -4 54 -16 72 -26 38z"/>
<path d="M6210 1198 c0 -60 10 -78 41 -78 28 0 29 2 29 49 0 42 -3 49 -22 55
-41 11 -48 7 -48 -26z m50 -24 c0 -21 -4 -33 -10 -29 -17 10 -11 65 7 65 2 0
3 -16 3 -36z"/>
<path d="M2557 1214 c-4 -4 -7 -27 -7 -51 0 -40 2 -44 22 -41 16 2 24 12 29
36 4 18 3 35 -2 38 -5 3 -9 -5 -9 -18 0 -13 -4 -30 -10 -38 -15 -23 -24 14
-10 40 12 22 1 48 -13 34z"/>
<path d="M3167 1202 c-35 -38 -15 -82 36 -79 25 2 27 5 21 32 -8 37 -22 65
-33 65 -4 0 -15 -8 -24 -18z m31 -40 c3 -25 0 -31 -12 -26 -10 4 -16 18 -16
36 0 40 24 32 28 -10z"/>
<path d="M3439 1198 c-1 -13 -3 -35 -5 -50 -3 -26 0 -28 32 -28 32 0 34 2 34
33 0 52 -59 95 -61 45z m37 -13 c7 -30 -2 -59 -16 -50 -13 8 -13 75 0 75 5 0
12 -11 16 -25z"/>
<path d="M3642 1207 c-16 -19 -23 -61 -13 -75 12 -19 55 -11 59 11 9 46 -24
91 -46 64z m31 -42 c2 -31 -19 -46 -29 -21 -3 9 -3 28 0 42 9 33 26 20 29 -21z"/>
<path d="M5420 1166 c0 -59 -23 -103 -73 -140 -24 -18 -43 -21 -120 -21 -90 0
-94 1 -192 50 -125 61 -126 62 -90 30 100 -87 272 -152 373 -142 71 8 135 46
167 101 27 46 40 113 30 153 l-5 23 -21 -21 -20 -20 -18 20 c-10 12 -21 21
-25 21 -3 0 -6 -24 -6 -54z"/>
<path d="M5745 1205 c-3 -8 -7 -22 -10 -31 -15 -48 57 -77 75 -29 14 37 -3 75
-35 75 -14 0 -28 -7 -30 -15z m45 -35 c0 -31 -16 -41 -26 -15 -8 19 2 45 16
45 5 0 10 -13 10 -30z"/>
<path d="M5840 1170 c0 -50 1 -51 28 -48 25 3 27 7 30 51 2 28 -1 47 -7 47 -6
0 -11 -18 -11 -39 0 -22 -4 -43 -10 -46 -6 -4 -10 10 -10 34 0 22 -4 43 -10
46 -6 4 -10 -13 -10 -45z"/>
<path d="M5928 1186 c-4 -40 6 -81 15 -56 3 8 7 32 9 53 5 48 -18 51 -24 3z"/>
<path d="M5973 1190 c4 -18 7 -41 7 -51 0 -11 5 -19 11 -19 16 0 7 93 -10 98
-11 4 -13 -3 -8 -28z"/>
<path d="M6027 1213 c-9 -8 -9 -56 -1 -77 13 -34 29 -15 29 34 0 46 -10 62
-28 43z"/>
<path d="M6127 1213 c-4 -3 -7 -26 -7 -50 0 -32 4 -43 15 -43 12 0 14 8 9 40
-4 27 -3 40 5 40 6 0 11 -17 11 -40 0 -22 4 -40 9 -40 14 0 17 16 13 61 -3 33
-8 39 -26 39 -13 0 -26 -3 -29 -7z"/>
<path d="M6314 1207 c-3 -8 -4 -30 -2 -49 2 -28 7 -34 30 -36 22 -3 29 2 33
21 12 46 2 72 -28 75 -17 2 -29 -2 -33 -11z m41 -18 c4 -5 4 -22 0 -37 -5 -20
-8 -23 -16 -11 -12 19 -12 59 0 59 6 0 13 -5 16 -11z"/>
<path d="M6407 1213 c-4 -3 -7 -26 -7 -50 0 -58 24 -53 28 5 2 23 7 42 11 42
10 0 21 -35 21 -67 0 -13 5 -23 10 -23 6 0 10 23 10 50 0 50 0 50 -33 50 -19
0 -37 -3 -40 -7z"/>
<path d="M6547 1213 c-13 -12 -7 -71 8 -83 27 -23 65 3 65 44 0 22 -6 36 -16
40 -21 8 -49 8 -57 -1z m48 -23 c8 -12 -3 -50 -15 -50 -10 0 -18 31 -13 48 6
15 19 16 28 2z"/>
<path d="M6852 1208 c-25 -25 -6 -88 26 -88 25 0 42 20 42 50 0 29 -16 50 -40
50 -9 0 -21 -5 -28 -12z m44 -33 c7 -29 1 -41 -15 -30 -14 8 -14 55 -1 55 5 0
12 -11 16 -25z"/>
<path d="M6947 1213 c-10 -10 -8 -81 2 -87 10 -7 21 27 21 67 0 26 -9 34 -23
20z"/>
<path d="M6995 1197 c-10 -38 11 -77 40 -77 23 0 25 3 25 50 0 49 -1 50 -30
50 -23 0 -31 -5 -35 -23z m47 -27 c3 -17 1 -33 -4 -36 -4 -3 -8 -1 -8 4 0 5
-3 24 -7 42 -4 22 -3 31 4 27 6 -4 13 -21 15 -37z"/>
<path d="M7090 1210 c0 -5 9 -10 20 -10 17 0 20 -7 20 -41 0 -28 4 -39 13 -37
16 6 21 66 6 84 -13 16 -59 19 -59 4z"/>
<path d="M2411 1163 c0 -36 3 -43 9 -28 12 28 12 63 0 70 -6 4 -10 -12 -9 -42z"/>
<path d="M2454 1190 c3 -14 6 -35 6 -47 0 -13 5 -23 11 -23 15 0 5 69 -12 84
-9 8 -10 5 -5 -14z"/>
<path d="M2693 1203 c-14 -5 -18 -83 -5 -83 5 0 7 13 4 30 -3 22 0 32 13 37
24 9 45 -21 46 -66 l1 -36 11 32 c7 17 15 35 20 39 4 4 7 17 6 28 0 19 -1 18
-10 -4 l-10 -25 -21 28 c-19 26 -30 31 -55 20z"/>
<path d="M2866 1191 c-14 -15 -15 -23 -5 -45 14 -30 39 -34 62 -8 22 24 21 35
-1 55 -24 22 -35 21 -56 -2z m50 -16 c7 -18 -14 -47 -27 -39 -5 3 -9 16 -9 30
0 27 27 34 36 9z"/>
<path d="M3240 1183 c17 -58 22 -64 49 -61 22 3 26 8 29 41 2 21 -1 37 -7 37
-6 0 -11 -16 -11 -35 0 -47 -18 -44 -37 5 -18 45 -36 55 -23 13z"/>
<path d="M3364 1202 c-19 -12 -27 -52 -14 -67 16 -20 56 -19 64 0 4 12 2 13
-12 7 -25 -13 -42 -4 -42 22 0 31 9 37 32 25 16 -9 19 -8 16 3 -5 15 -28 21
-44 10z"/>
<path d="M3732 1198 c-14 -14 -16 -78 -2 -78 6 0 10 15 10 34 0 41 17 57 24
24 3 -13 7 -32 9 -43 3 -11 5 -1 6 21 1 30 -4 44 -15 48 -20 8 -18 8 -32 -6z"/>
<path d="M2267 1168 c8 -43 23 -60 23 -26 0 32 -9 58 -21 58 -5 0 -6 -15 -2
-32z"/>
<path d="M2373 1155 c0 -22 2 -30 4 -17 2 12 2 30 0 40 -3 9 -5 -1 -4 -23z"/>
<path d="M7085 1180 c-9 -15 3 -60 15 -60 13 0 13 57 1 65 -5 3 -13 0 -16 -5z"/>
</g>
</svg>
